{
	"asset":{
		"version":"2.0",
		"generator":"Created using the official Cinema 4D glTF Exporter 1.000x284978"
	},
	"scenes":[{
		"nodes":[0]
	}],
	"bufferViews":[{
		"buffer":0,
		"byteOffset":0,
		"byteLength":7488,
		"target":34963
	},
	{
		"buffer":0,
		"byteOffset":7488,
		"byteLength":55904,
		"target":34962,
		"byteStride":32
	}],
	"nodes":[{
		"name":"Extrude",
		"children":[1]
	},
	{
		"name":"Extrude",
		"mesh":0
	}],
	"meshes":[{
		"name":"Extrude",
		"primitives":[{
			"attributes":{
				"POSITION":1,
				"NORMAL":2,
				"TEXCOORD_0":3
			},
			"indices":0,
			"material":0
		}]
	}],
	"accessors":[{
		"bufferView":0,
		"count":3744,
		"type":"SCALAR",
		"componentType":5123,
		"byteOffset":0,
		"min":[0],
		"max":[1746]
	},
	{
		"bufferView":1,
		"count":1747,
		"type":"VEC3",
		"componentType":5126,
		"byteOffset":0,
		"min":[-271.50860595703127,
		-290.7135925292969,
		-32.0],
		"max":[303.1803283691406,
		362.342041015625,
		10.0]
	},
	{
		"bufferView":1,
		"count":1747,
		"type":"VEC3",
		"componentType":5126,
		"byteOffset":12,
		"min":[-1.0,
		-0.8720778226852417,
		-1.0],
		"max":[1.0,
		0.8682432770729065,
		1.0]
	},
	{
		"bufferView":1,
		"count":1747,
		"type":"VEC2",
		"componentType":5126,
		"byteOffset":24,
		"min":[0.1782945841550827,
		0.033898305147886279],
		"max":[0.9534884095191956,
		0.8813559412956238]
	}],
	"buffers":[{
		"uri":"data:application/octet-stream;base64,",
		"byteLength":63392
	}],
	"images":[{
		"uri":"data:image/jpeg;base64,"
	}],
	"samplers":[{
		"magFilter":9729,
		"minFilter":9729,
		"wrapS":10497,
		"wrapT":10497
	}],
	"textures":[{
		"sampler":0,
		"source":0
	}],
	"materials":[{
		"pbrMetallicRoughness":{
			"baseColorTexture":{
				"index":0
			},
			"baseColorFactor":[0.8,
			0.8,
			0.8,
			1.0],
			"metallicFactor":0.0,
			"roughnessFactor":0.19
		},
		"emissiveFactor":[0.0,
		0.0,
		0.0],
		"alphaMode":"OPAQUE",
		"doubleSided":false,
		"name":"Mat"
	}]
}